<mxfile host="app.diagrams.net" modified="2022-07-04T05:43:53.481Z" agent="5.0 (Macintosh; Intel Mac OS X 10_15_7) AppleWebKit/537.36 (KHTML, like Gecko) Chrome/103.0.0.0 Safari/537.36" etag="r2JFgiKC3p4DZrNYPoVI" version="20.0.4" type="github">
  <diagram id="FwtzCZx2iVgfjDNg7mFb" name="Page-1">
    <mxGraphModel dx="918" dy="1014" grid="1" gridSize="10" guides="1" tooltips="1" connect="1" arrows="1" fold="1" page="1" pageScale="1" pageWidth="827" pageHeight="1169" math="0" shadow="0">
      <root>
        <mxCell id="0" />
        <mxCell id="1" parent="0" />
        <mxCell id="61rXTjgy0UBkaVtsp4Qm-15" value="" style="rounded=0;whiteSpace=wrap;html=1;fontSize=14;" vertex="1" parent="1">
          <mxGeometry x="380" y="110" width="480" height="550" as="geometry" />
        </mxCell>
        <mxCell id="61rXTjgy0UBkaVtsp4Qm-11" value="" style="rounded=0;whiteSpace=wrap;html=1;" vertex="1" parent="1">
          <mxGeometry x="400" y="440" width="440" height="200" as="geometry" />
        </mxCell>
        <mxCell id="61rXTjgy0UBkaVtsp4Qm-1" value="" style="rounded=0;whiteSpace=wrap;html=1;" vertex="1" parent="1">
          <mxGeometry x="400" y="200" width="440" height="200" as="geometry" />
        </mxCell>
        <mxCell id="61rXTjgy0UBkaVtsp4Qm-9" style="edgeStyle=orthogonalEdgeStyle;rounded=0;orthogonalLoop=1;jettySize=auto;html=1;exitX=0.5;exitY=1;exitDx=0;exitDy=0;entryX=0.5;entryY=0;entryDx=0;entryDy=0;fontSize=14;" edge="1" parent="1" source="61rXTjgy0UBkaVtsp4Qm-2" target="61rXTjgy0UBkaVtsp4Qm-4">
          <mxGeometry relative="1" as="geometry" />
        </mxCell>
        <mxCell id="61rXTjgy0UBkaVtsp4Qm-2" value="nextUnitOfWork" style="rounded=0;whiteSpace=wrap;html=1;" vertex="1" parent="1">
          <mxGeometry x="560" y="140" width="120" height="40" as="geometry" />
        </mxCell>
        <mxCell id="61rXTjgy0UBkaVtsp4Qm-16" style="edgeStyle=orthogonalEdgeStyle;rounded=0;orthogonalLoop=1;jettySize=auto;html=1;exitX=1;exitY=0.75;exitDx=0;exitDy=0;entryX=1;entryY=0.363;entryDx=0;entryDy=0;fontSize=14;entryPerimeter=0;" edge="1" parent="1" source="61rXTjgy0UBkaVtsp4Qm-4" target="61rXTjgy0UBkaVtsp4Qm-4">
          <mxGeometry relative="1" as="geometry">
            <Array as="points">
              <mxPoint x="680" y="350" />
              <mxPoint x="720" y="350" />
              <mxPoint x="720" y="278" />
            </Array>
          </mxGeometry>
        </mxCell>
        <mxCell id="61rXTjgy0UBkaVtsp4Qm-17" value="遍历至叶子结点" style="edgeLabel;html=1;align=center;verticalAlign=middle;resizable=0;points=[];fontSize=14;" vertex="1" connectable="0" parent="61rXTjgy0UBkaVtsp4Qm-16">
          <mxGeometry x="-0.0488" y="1" relative="1" as="geometry">
            <mxPoint x="61" y="-3" as="offset" />
          </mxGeometry>
        </mxCell>
        <mxCell id="61rXTjgy0UBkaVtsp4Qm-25" style="edgeStyle=orthogonalEdgeStyle;rounded=0;orthogonalLoop=1;jettySize=auto;html=1;exitX=0.5;exitY=1;exitDx=0;exitDy=0;fontSize=14;" edge="1" parent="1" source="61rXTjgy0UBkaVtsp4Qm-4" target="61rXTjgy0UBkaVtsp4Qm-24">
          <mxGeometry relative="1" as="geometry" />
        </mxCell>
        <mxCell id="61rXTjgy0UBkaVtsp4Qm-26" value="叶子结点任务执行完成" style="edgeLabel;html=1;align=center;verticalAlign=middle;resizable=0;points=[];fontSize=14;" vertex="1" connectable="0" parent="61rXTjgy0UBkaVtsp4Qm-25">
          <mxGeometry x="-0.1111" relative="1" as="geometry">
            <mxPoint as="offset" />
          </mxGeometry>
        </mxCell>
        <mxCell id="61rXTjgy0UBkaVtsp4Qm-31" style="edgeStyle=orthogonalEdgeStyle;rounded=0;orthogonalLoop=1;jettySize=auto;html=1;exitX=0;exitY=0.25;exitDx=0;exitDy=0;entryX=0;entryY=0.5;entryDx=0;entryDy=0;fontSize=14;" edge="1" parent="1" source="61rXTjgy0UBkaVtsp4Qm-4" target="61rXTjgy0UBkaVtsp4Qm-24">
          <mxGeometry relative="1" as="geometry">
            <Array as="points">
              <mxPoint x="540" y="260" />
              <mxPoint x="540" y="545" />
            </Array>
          </mxGeometry>
        </mxCell>
        <mxCell id="61rXTjgy0UBkaVtsp4Qm-32" value="任务调度" style="edgeLabel;html=1;align=center;verticalAlign=middle;resizable=0;points=[];fontSize=14;" vertex="1" connectable="0" parent="61rXTjgy0UBkaVtsp4Qm-31">
          <mxGeometry x="-0.4426" y="-3" relative="1" as="geometry">
            <mxPoint x="-37" y="49" as="offset" />
          </mxGeometry>
        </mxCell>
        <mxCell id="61rXTjgy0UBkaVtsp4Qm-35" style="edgeStyle=orthogonalEdgeStyle;rounded=0;orthogonalLoop=1;jettySize=auto;html=1;exitX=0.008;exitY=0.875;exitDx=0;exitDy=0;entryX=1.011;entryY=0.455;entryDx=0;entryDy=0;entryPerimeter=0;fontSize=14;exitPerimeter=0;" edge="1" parent="1" source="61rXTjgy0UBkaVtsp4Qm-4" target="61rXTjgy0UBkaVtsp4Qm-34">
          <mxGeometry relative="1" as="geometry" />
        </mxCell>
        <mxCell id="61rXTjgy0UBkaVtsp4Qm-4" value="" style="rounded=0;whiteSpace=wrap;html=1;fontSize=14;verticalAlign=top;" vertex="1" parent="1">
          <mxGeometry x="560" y="220" width="120" height="160" as="geometry" />
        </mxCell>
        <mxCell id="61rXTjgy0UBkaVtsp4Qm-33" style="edgeStyle=orthogonalEdgeStyle;rounded=0;orthogonalLoop=1;jettySize=auto;html=1;exitX=0.5;exitY=0;exitDx=0;exitDy=0;entryX=0.5;entryY=0;entryDx=0;entryDy=0;fontSize=14;" edge="1" parent="1" source="61rXTjgy0UBkaVtsp4Qm-5" target="61rXTjgy0UBkaVtsp4Qm-2">
          <mxGeometry relative="1" as="geometry" />
        </mxCell>
        <mxCell id="61rXTjgy0UBkaVtsp4Qm-5" value="Next Fiber" style="rounded=0;whiteSpace=wrap;html=1;" vertex="1" parent="1">
          <mxGeometry x="880" y="110" width="80" height="550" as="geometry" />
        </mxCell>
        <mxCell id="61rXTjgy0UBkaVtsp4Qm-8" value="&lt;font style=&quot;font-size: 14px;&quot;&gt;Fiber workloop&lt;/font&gt;" style="text;whiteSpace=wrap;html=1;align=center;" vertex="1" parent="1">
          <mxGeometry x="400" y="140" width="60" height="30" as="geometry" />
        </mxCell>
        <mxCell id="61rXTjgy0UBkaVtsp4Qm-10" value="&lt;meta charset=&quot;utf-8&quot; style=&quot;font-size: 14px;&quot;&gt;&lt;span style=&quot;color: rgb(0, 0, 0); font-family: Helvetica; font-size: 14px; font-style: normal; font-variant-ligatures: normal; font-variant-caps: normal; font-weight: 400; letter-spacing: normal; orphans: 2; text-align: center; text-indent: 0px; text-transform: none; widows: 2; word-spacing: 0px; -webkit-text-stroke-width: 0px; background-color: rgb(248, 249, 250); text-decoration-thickness: initial; text-decoration-style: initial; text-decoration-color: initial; float: none; display: inline !important;&quot;&gt;performUnitOfWork&lt;/span&gt;" style="text;whiteSpace=wrap;html=1;fontSize=14;fillColor=none;" vertex="1" parent="1">
          <mxGeometry x="410" y="210" width="130" height="30" as="geometry" />
        </mxCell>
        <mxCell id="61rXTjgy0UBkaVtsp4Qm-12" value="入参：待执行任务" style="text;html=1;align=center;verticalAlign=middle;resizable=0;points=[];autosize=1;strokeColor=none;fillColor=none;fontSize=14;" vertex="1" parent="1">
          <mxGeometry x="690" y="145" width="140" height="30" as="geometry" />
        </mxCell>
        <mxCell id="61rXTjgy0UBkaVtsp4Qm-18" value="&lt;meta charset=&quot;utf-8&quot;&gt;completeUnitOfWork" style="text;whiteSpace=wrap;html=1;fontSize=14;" vertex="1" parent="1">
          <mxGeometry x="410" y="450" width="140" height="30" as="geometry" />
        </mxCell>
        <mxCell id="61rXTjgy0UBkaVtsp4Qm-19" value="" style="endArrow=none;html=1;rounded=0;fontSize=14;" edge="1" parent="1">
          <mxGeometry width="50" height="50" relative="1" as="geometry">
            <mxPoint x="680" y="310" as="sourcePoint" />
            <mxPoint x="560" y="310" as="targetPoint" />
          </mxGeometry>
        </mxCell>
        <mxCell id="61rXTjgy0UBkaVtsp4Qm-21" value="&lt;span style=&quot;color: rgb(0, 0, 0); font-family: Helvetica; font-size: 14px; font-style: normal; font-variant-ligatures: normal; font-variant-caps: normal; font-weight: 400; letter-spacing: normal; orphans: 2; text-align: center; text-indent: 0px; text-transform: none; widows: 2; word-spacing: 0px; -webkit-text-stroke-width: 0px; background-color: rgb(248, 249, 250); text-decoration-thickness: initial; text-decoration-style: initial; text-decoration-color: initial; float: none; display: inline !important;&quot;&gt;BeginWork&lt;/span&gt;" style="text;whiteSpace=wrap;html=1;fontSize=14;" vertex="1" parent="1">
          <mxGeometry x="585" y="250" width="70" height="30" as="geometry" />
        </mxCell>
        <mxCell id="61rXTjgy0UBkaVtsp4Qm-22" value="update" style="text;html=1;align=center;verticalAlign=middle;resizable=0;points=[];autosize=1;strokeColor=none;fillColor=none;fontSize=14;" vertex="1" parent="1">
          <mxGeometry x="585" y="330" width="70" height="30" as="geometry" />
        </mxCell>
        <mxCell id="61rXTjgy0UBkaVtsp4Qm-27" style="edgeStyle=orthogonalEdgeStyle;rounded=0;orthogonalLoop=1;jettySize=auto;html=1;exitX=1;exitY=0.25;exitDx=0;exitDy=0;entryX=-0.012;entryY=0.722;entryDx=0;entryDy=0;entryPerimeter=0;fontSize=14;" edge="1" parent="1" source="61rXTjgy0UBkaVtsp4Qm-24" target="61rXTjgy0UBkaVtsp4Qm-5">
          <mxGeometry relative="1" as="geometry" />
        </mxCell>
        <mxCell id="61rXTjgy0UBkaVtsp4Qm-28" value="没有兄弟 Fiber 返回父 Fiber" style="edgeLabel;html=1;align=center;verticalAlign=middle;resizable=0;points=[];fontSize=14;" vertex="1" connectable="0" parent="61rXTjgy0UBkaVtsp4Qm-27">
          <mxGeometry x="0.152" y="-1" relative="1" as="geometry">
            <mxPoint x="-24" y="62" as="offset" />
          </mxGeometry>
        </mxCell>
        <mxCell id="61rXTjgy0UBkaVtsp4Qm-29" style="edgeStyle=orthogonalEdgeStyle;rounded=0;orthogonalLoop=1;jettySize=auto;html=1;exitX=1;exitY=0.75;exitDx=0;exitDy=0;entryX=0;entryY=0.858;entryDx=0;entryDy=0;entryPerimeter=0;fontSize=14;" edge="1" parent="1" source="61rXTjgy0UBkaVtsp4Qm-24" target="61rXTjgy0UBkaVtsp4Qm-5">
          <mxGeometry relative="1" as="geometry" />
        </mxCell>
        <mxCell id="61rXTjgy0UBkaVtsp4Qm-30" value="下一个兄弟 Fiber" style="edgeLabel;html=1;align=center;verticalAlign=middle;resizable=0;points=[];fontSize=14;" vertex="1" connectable="0" parent="61rXTjgy0UBkaVtsp4Qm-29">
          <mxGeometry x="-0.2522" y="3" relative="1" as="geometry">
            <mxPoint x="5" y="-89" as="offset" />
          </mxGeometry>
        </mxCell>
        <mxCell id="61rXTjgy0UBkaVtsp4Qm-24" value="completeWork" style="rounded=0;whiteSpace=wrap;html=1;fontSize=14;fillColor=none;" vertex="1" parent="1">
          <mxGeometry x="560" y="470" width="120" height="150" as="geometry" />
        </mxCell>
        <mxCell id="61rXTjgy0UBkaVtsp4Qm-34" value="需要更新的结点及更新结果链表" style="rounded=0;whiteSpace=wrap;html=1;fontSize=14;" vertex="1" parent="1">
          <mxGeometry x="270" y="110" width="90" height="550" as="geometry" />
        </mxCell>
        <mxCell id="61rXTjgy0UBkaVtsp4Qm-36" value="" style="endArrow=none;html=1;rounded=0;fontSize=14;entryX=-0.008;entryY=0.694;entryDx=0;entryDy=0;entryPerimeter=0;" edge="1" parent="1" target="61rXTjgy0UBkaVtsp4Qm-4">
          <mxGeometry width="50" height="50" relative="1" as="geometry">
            <mxPoint x="540" y="331" as="sourcePoint" />
            <mxPoint x="580" y="350" as="targetPoint" />
          </mxGeometry>
        </mxCell>
      </root>
    </mxGraphModel>
  </diagram>
</mxfile>
